# xmcd
#
# Track frame offsets: 
#        150
#        17003
#        33526
#        45429
#        60294
#        78648
#        95635
#        114288
#        131722
#        145552
#        161889
#        178012
#        192821
#        210984
#        227622
#        244439
#        257789
#        276152
#        291099
#        308002
#
# Disc length: 4324 seconds
#
# Revision: 0
# Processed by: cddbd v1.5.2PL0 Copyright (c) Steve Scherf et al.
# Submitted via: ExactAudioCopy v1.0b3
#
DISCID=1510e214
DTITLE=Demis Roussos - Die Nacht Und Der Wein CD 6
DYEAR=1976
DGENRE=Pop
TTITLE0=Die Bouzouki, Die Nacht Und Der Wein
TTITLE1=König Und Bettler
TTITLE2=Mein Lieben Ist Ein Souvenir
TTITLE3=Komm In Den Garten Der Tausend Melodien
TTITLE4=Schön Wie Mona Lisa
TTITLE5=Ich Hab Das Glück Gesehn
TTITLE6=Vagabund Der Liebe
TTITLE7=Wenn Ich Wiederkomm
TTITLE8=Ich Bin Frei
TTITLE9=Kyrila
TTITLE10=Wenn Die Freunde Gehen
TTITLE11=Trink Mit Mir Den Sommerwein (I Have You)
TTITLE12=Komm In Meiner Arme
TTITLE13=Schade Marie
TTITLE14=Kehr Wieder Um
TTITLE15=Leierkasten Auf Dem Boulevard
TTITLE16=Trauriges Mädchen
TTITLE17=Liebe Kennt Viele Namen
TTITLE18=Die Nächte Von Athen
TTITLE19=Ich Hatte Dich Heiraten Sollen
EXTD=
EXTT0=
EXTT1=
EXTT2=
EXTT3=
EXTT4=
EXTT5=
EXTT6=
EXTT7=
EXTT8=
EXTT9=
EXTT10=
EXTT11=
EXTT12=
EXTT13=
EXTT14=
EXTT15=
EXTT16=
EXTT17=
EXTT18=
EXTT19=
PLAYORDER=
